<?xml version="1.0" standalone="no"?>
<!DOCTYPE svg PUBLIC "-//W3C//DTD SVG 20010904//EN"
 "http://www.w3.org/TR/2001/REC-SVG-20010904/DTD/svg10.dtd">
<svg version="1.0" xmlns="http://www.w3.org/2000/svg"
 width="300.000000pt" height="300.000000pt" viewBox="0 0 300.000000 300.000000"
 preserveAspectRatio="xMidYMid meet">
<metadata>
Created by potrace 1.16, written by Peter Selinger 2001-2019
</metadata>
<g transform="translate(0.000000,300.000000) scale(0.100000,-0.100000)"
fill="#000000" stroke="none">
<path d="M550 1326 c0 -25 12 -46 26 -46 8 0 14 7 14 15 0 13 70 15 571 15
l572 0 -7 -31 c-3 -17 -6 -38 -6 -45 0 -8 -8 -14 -18 -14 -48 0 -97 -73 -86
-129 19 -92 147 -117 194 -38 27 43 25 47 -14 47 -21 0 -36 -6 -40 -16 -4 -10
-16 -14 -38 -12 -28 2 -34 8 -36 31 -6 50 38 76 72 42 17 -18 76 -20 76 -3 0
6 -18 28 -39 49 -39 36 -40 38 -34 93 l6 56 -607 0 c-516 0 -606 -2 -606 -14z"/>
<path d="M1870 1247 c0 -27 -4 -34 -17 -33 -12 0 -19 -7 -21 -21 -3 -18 2 -23
17 -23 19 0 21 -6 21 -68 0 -40 5 -73 12 -80 7 -7 36 -12 65 -12 50 0 53 1 53
25 0 23 -4 25 -40 25 l-40 0 0 55 0 55 41 0 c36 0 40 2 37 23 -2 18 -9 22 -40
21 -34 -1 -37 1 -40 30 -2 23 -9 32 -25 34 -20 3 -23 -1 -23 -31z"/>
<path d="M2110 1205 c0 -8 19 -55 41 -105 56 -121 66 -120 125 6 24 53 42 100
38 105 -15 24 -38 4 -68 -61 l-32 -70 -30 62 c-16 35 -33 66 -39 70 -17 13
-35 9 -35 -7z"/>
<path d="M2371 1204 c-53 -38 -61 -122 -15 -168 30 -29 65 -37 110 -24 45 12
64 42 64 101 0 40 -5 53 -29 78 -34 34 -92 40 -130 13z"/>
</g>
</svg>
